# xmcd
#
# Track frame offsets:
#	150
#	15285
#	29997
#	45455
#	60950
#	72600
#	83420
#	104025
#	116897
#	129610
#
# Disc length: 1946 seconds
#
# Revision: 1
# Processed by: cddbd v1.5.2PL0 Copyright (c) Steve Scherf et al.
# Submitted via: audiograbber 1.83.01
#
DISCID=8707980a
DTITLE=Marvin Dale - Pledging Love
DYEAR=1900
DGENRE=Country
TTITLE0=Devil In A Cowboy Hat
TTITLE1=Let Me Down Slow And Easy
TTITLE2=There She Goes Again
TTITLE3=Wake Me When It's Over
TTITLE4=Buit For Breakin' Hearts
TTITLE5=Angels On Fire
TTITLE6=Pictures
TTITLE7=San Antonio Girls
TTITLE8=Sound Of You Leavin'
TTITLE9=I Pledge My Love
EXTD=
EXTT0=
EXTT1=
EXTT2=
EXTT3=
EXTT4=
EXTT5=
EXTT6=
EXTT7=
EXTT8=
EXTT9=
PLAYORDER=
